# xmcd
#
# Track frame offsets: 
#        150
#        25936
#        44805
#        64093
#        78033
#
# Disc length: 1303 seconds
#
# Revision: 0
# Processed by: cddbd v1.5.1PL2 Copyright (c) Steve Scherf et al.
# Submitted via: ExactAudioCopy v0.95b3
#
DISCID=39051505
DTITLE=Reservoir Cats - I Put a Spell on You
DYEAR=1998
DGENRE=Blues
TTITLE0=I Put a Spell on You
TTITLE1=Suzie Q
TTITLE2=Funk #49
TTITLE3=I'm Ready
TTITLE4=(reprise)
EXTD=
EXTT0=
EXTT1=
EXTT2=
EXTT3=
EXTT4=
PLAYORDER=
